Coordinates
version=1
nRows=19
nColumns=63
inDegrees=yes

Units are S.I. units (second, meters, Newtons, ...)
If the header above contains a line with 'inDegrees', this indicates whether rotational values are in degrees (yes) or radians (no).

endheader
time	pelvis_tilt	pelvis_list	pelvis_rotation	pelvis_tx	pelvis_ty	pelvis_tz	hip_flexion_r	hip_adduction_r	hip_rotation_r	knee_angle_r	knee_angle_r_beta	ankle_angle_r	subtalar_angle_r	mtp_angle_r	hip_flexion_l	hip_adduction_l	hip_rotation_l	knee_angle_l	knee_angle_l_beta	ankle_angle_l	subtalar_angle_l	mtp_angle_l	L5_S1_Flex_Ext	L5_S1_Lat_Bending	L5_S1_axial_rotation	L4_L5_Flex_Ext	L4_L5_Lat_Bending	L4_L5_axial_rotation	L3_L4_Flex_Ext	L3_L4_Lat_Bending	L3_L4_axial_rotation	L2_L3_Flex_Ext	L2_L3_Lat_Bending	L2_L3_axial_rotation	L1_L2_Flex_Ext	L1_L2_Lat_Bending	L1_L2_axial_rotation	L1_T12_Flex_Ext	L1_T12_Lat_Bending	L1_T12_axial_rotation	Abs_r3	Abs_r2	Abs_r1	Abs_t1	Abs_t2	neck_flexion	neck_bending	neck_rotation	arm_flex_r	arm_add_r	arm_rot_r	elbow_flex_r	pro_sup_r	wrist_flex_r	wrist_dev_r	arm_flex_l	arm_add_l	arm_rot_l	elbow_flex_l	pro_sup_l	wrist_flex_l	wrist_dev_l
4.400000	-2.560718	-8.626901	99.951478	0.130718	1.004505	0.271759	-3.307628	-5.444254	-15.200726	7.260792	0.126725	21.941752	4.443912	0.000000	-2.782352	3.516443	-0.982177	2.067730	0.036089	18.616833	13.368171	0.000000	0.064971	0.022288	0.277821	0.120657	0.029643	0.295185	0.106740	0.054190	0.295185	0.074255	0.054190	0.243094	0.060332	0.045449	0.225730	0.037124	0.034524	0.208366	0.464079	0.252122	1.545160	0.000000	0.000000	20.481516	-5.025654	-20.640762	-12.604301	-17.194198	-32.021888	105.165418	88.801022	0.278533	31.267801	32.550940	-18.975900	39.457978	77.512213	89.267063	-5.865924	13.927411
4.416667	-2.484829	-8.615544	100.119639	0.130448	1.004588	0.271717	-3.208750	-5.372751	-15.034672	7.549636	0.131766	22.030999	3.987269	0.000000	-2.838615	3.459596	-0.486258	1.936054	0.033791	18.516886	13.021937	0.000000	0.072773	0.001968	0.270280	0.135146	0.002618	0.287173	0.119558	0.004785	0.287173	0.083172	0.004785	0.236495	0.067577	0.004014	0.219603	0.041582	0.003049	0.202710	0.519809	0.022265	1.503218	0.000000	0.000000	20.620777	-4.061748	-19.479285	-11.416903	-17.495983	-32.382886	102.648457	88.702658	-1.723973	31.949309	31.899478	-18.484938	40.283020	79.580356	89.294120	-3.492479	14.939647
4.433333	-2.383234	-8.626799	100.230077	0.130254	1.004652	0.271605	-3.076648	-5.285877	-14.896037	7.838454	0.136807	22.109916	3.610909	0.000000	-2.866301	3.381490	-0.025955	1.819080	0.031749	18.458321	12.651842	0.000000	0.080462	-0.020561	0.278544	0.149426	-0.027346	0.295953	0.132191	-0.049992	0.295953	0.091960	-0.049992	0.243726	0.074717	-0.041928	0.226317	0.045976	-0.031849	0.208908	0.574730	-0.232591	1.549177	0.000000	0.000000	20.810643	-2.982162	-18.213819	-10.333782	-17.782843	-32.773091	100.036592	88.622214	-3.695218	32.648742	31.241210	-18.052754	41.159712	81.797268	89.309832	-0.849998	16.439589
4.450000	-2.270937	-8.664231	100.275931	0.130141	1.004707	0.271473	-2.904459	-5.196970	-14.730736	8.129376	0.141884	22.170610	3.250539	0.000000	-2.861389	3.296842	0.322454	1.716023	0.029950	18.437614	12.349695	0.000000	0.087580	-0.044854	0.291809	0.162644	-0.059656	0.310047	0.143885	-0.109057	0.310047	0.100095	-0.109057	0.255333	0.081327	-0.091466	0.237095	0.050043	-0.069478	0.218857	0.625573	-0.507395	1.622953	0.000000	0.000000	21.042409	-1.767259	-16.720423	-9.308255	-18.071324	-33.086489	97.390050	88.563230	-5.610616	33.302093	30.538644	-17.678705	41.902286	84.097835	89.323362	2.214311	18.404359
4.466667	-2.144544	-8.710935	100.241139	0.130159	1.004762	0.271336	-2.711595	-5.101557	-14.589782	8.409702	0.146777	22.227672	3.019600	0.000000	-2.834672	3.198487	0.574494	1.641326	0.028647	18.475115	12.065235	0.000000	0.092690	-0.070683	0.334458	0.172135	-0.094008	0.355362	0.152281	-0.171859	0.355362	0.105936	-0.171859	0.292651	0.086072	-0.144137	0.271747	0.052963	-0.109488	0.250843	0.662078	-0.799581	1.860155	0.000000	0.000000	21.207375	-0.562305	-15.299008	-8.427805	-18.321816	-33.441224	94.813822	88.526502	-7.395518	33.816700	29.991454	-17.347117	42.832474	86.283848	89.327953	5.380072	20.496602
4.483333	-1.993594	-8.753225	100.162001	0.130256	1.004831	0.271241	-2.509748	-4.982892	-14.444527	8.685126	0.151584	22.267644	2.831601	0.000000	-2.799634	3.072424	0.717887	1.584438	0.027654	18.572190	11.859298	0.000000	0.094384	-0.094124	0.384621	0.175281	-0.125185	0.408660	0.155064	-0.228853	0.408660	0.107872	-0.228853	0.336544	0.087645	-0.191937	0.312505	0.053931	-0.145798	0.288466	0.674178	-1.064747	2.139148	0.000000	0.000000	21.285787	0.616346	-13.834193	-7.601887	-18.609051	-33.708521	92.335230	88.510480	-8.957203	34.144021	29.522918	-17.088065	43.747955	88.336651	89.338295	8.692149	22.649070
4.500000	-1.827760	-8.798176	100.046134	0.130406	1.004903	0.271194	-2.301502	-4.849971	-14.290363	8.932862	0.155908	22.274823	2.688347	0.000000	-2.745276	2.930231	0.767259	1.555164	0.027143	18.720587	11.709904	0.000000	0.093549	-0.115030	0.443672	0.173730	-0.152990	0.471401	0.153692	-0.279685	0.471401	0.106918	-0.279685	0.388213	0.086870	-0.234570	0.360483	0.053454	-0.178182	0.332754	0.668214	-1.301247	2.467569	0.000000	0.000000	21.260130	1.662358	-12.450544	-6.846073	-18.931166	-33.883382	90.034535	88.512916	-10.337633	34.281374	29.118543	-16.887043	44.633083	90.167378	89.351773	11.920515	24.447487
4.516667	-1.628436	-8.850860	99.886915	0.130598	1.004960	0.271186	-2.082806	-4.685901	-14.107970	9.138924	0.159504	22.232934	2.614082	0.000000	-2.669835	2.755358	0.741946	1.541887	0.026911	18.919043	11.591645	0.000000	0.091769	-0.128134	0.504349	0.170424	-0.170418	0.535871	0.150767	-0.311544	0.535871	0.104883	-0.311544	0.441305	0.085217	-0.261290	0.409784	0.052437	-0.198479	0.378262	0.655497	-1.449475	2.805038	0.000000	0.000000	21.122319	2.472209	-11.092858	-6.132554	-19.313358	-33.903579	87.972816	88.535086	-11.548659	34.270024	28.717364	-16.764516	45.458495	91.769054	89.367890	14.617408	25.713688
4.533333	-1.431022	-8.909105	99.689365	0.130801	1.005011	0.271210	-1.872691	-4.525566	-13.925550	9.284790	0.162050	22.143407	2.634437	0.000000	-2.574115	2.585229	0.593543	1.563777	0.027293	19.152986	11.550178	0.000000	0.087571	-0.137532	0.578929	0.162629	-0.182917	0.615112	0.143871	-0.334395	0.615112	0.100085	-0.334395	0.506563	0.081319	-0.280455	0.470380	0.050038	-0.213037	0.434197	0.625514	-1.555786	3.219829	0.000000	0.000000	20.871109	3.037842	-9.893352	-5.553133	-19.726210	-33.916479	86.208503	88.573055	-12.421808	34.091236	28.329167	-16.649183	46.112192	93.120242	89.393127	17.094346	26.674732
4.550000	-1.202685	-8.989035	99.502302	0.130953	1.005016	0.271251	-1.646362	-4.337151	-13.753877	9.400810	0.164075	22.009323	2.680075	0.000000	-2.450293	2.387100	0.385812	1.587423	0.027706	19.397929	11.577429	0.000000	0.083304	-0.138175	0.632823	0.154704	-0.183772	0.672374	0.136860	-0.335958	0.672374	0.095208	-0.335958	0.553720	0.077356	-0.281766	0.514169	0.047600	-0.214033	0.474617	0.595034	-1.563059	3.519572	0.000000	0.000000	20.548358	3.360222	-8.758661	-4.997836	-20.219732	-33.696651	84.757080	88.616452	-13.103585	33.949474	27.784497	-16.632767	46.482798	94.374849	89.431507	18.671592	27.164775
4.566667	-0.974845	-9.087101	99.346730	0.131039	1.004993	0.271319	-1.427763	-4.147681	-13.613737	9.470625	0.165294	21.837932	2.739951	0.000000	-2.299353	2.191351	0.168579	1.628193	0.028417	19.628057	11.635066	0.000000	0.077865	-0.133957	0.668924	0.144602	-0.178162	0.710732	0.127924	-0.325702	0.710732	0.088991	-0.325702	0.585308	0.072305	-0.273165	0.543501	0.044492	-0.207499	0.501693	0.556179	-1.515345	3.720355	0.000000	0.000000	20.167030	3.496668	-7.686609	-4.511884	-20.759918	-33.318749	83.627897	88.669904	-13.609352	33.814266	27.091474	-16.666352	46.435108	95.553820	89.492840	19.824390	27.548109
4.583333	-0.742901	-9.199667	99.235550	0.131030	1.004937	0.271388	-1.226941	-3.948619	-13.477328	9.494757	0.165715	21.613442	2.740206	0.000000	-2.129804	1.993595	-0.058025	1.677773	0.029283	19.840523	11.726490	0.000000	0.072253	-0.124794	0.677299	0.134181	-0.165975	0.719630	0.118704	-0.303423	0.719630	0.082578	-0.303423	0.592637	0.067094	-0.254479	0.550305	0.041285	-0.193305	0.507974	0.516096	-1.411690	3.766934	0.000000	0.000000	19.727376	3.419639	-6.733767	-4.040822	-21.336986	-32.733711	82.771546	88.715154	-13.850603	33.710320	26.220952	-16.722573	45.934772	96.721608	89.536521	20.328392	28.102371
4.600000	-0.489683	-9.327266	99.163738	0.130895	1.004873	0.271468	-1.036819	-3.730289	-13.401792	9.482011	0.165492	21.335286	2.756719	0.000000	-1.939962	1.780195	-0.267846	1.727927	0.030158	20.019519	11.814050	0.000000	0.069186	-0.108739	0.664322	0.128486	-0.144623	0.705842	0.113666	-0.264388	0.705842	0.079073	-0.264388	0.581282	0.064247	-0.221741	0.539762	0.039533	-0.168437	0.498242	0.494192	-1.230078	3.694761	0.000000	0.000000	19.215833	3.130684	-5.960428	-3.587603	-21.909655	-32.021589	82.152288	88.742104	-13.828049	33.634447	25.228821	-16.734093	45.099009	97.758030	89.489305	19.935302	28.513395
4.616667	-0.255943	-9.458491	99.181839	0.130637	1.004805	0.271544	-0.889827	-3.515166	-13.299509	9.422844	0.164460	21.001768	2.581701	0.000000	-1.745383	1.582874	-0.429428	1.782802	0.031116	20.163301	11.942094	0.000000	0.067430	-0.093144	0.610002	0.125225	-0.123881	0.648127	0.110781	-0.226469	0.648127	0.077066	-0.226469	0.533752	0.062616	-0.189938	0.495627	0.038530	-0.144279	0.457502	0.481648	-1.053659	3.392649	0.000000	0.000000	18.668886	2.771187	-5.281720	-3.089414	-22.457521	-31.113740	81.687256	88.740769	-13.562351	33.586332	24.122506	-16.700814	43.766748	98.764751	89.304981	19.147875	29.463569
4.633333	-0.037991	-9.581369	99.236061	0.130317	1.004762	0.271615	-0.785183	-3.298864	-13.074903	9.317367	0.162619	20.601633	2.158431	0.000000	-1.561007	1.397066	-0.620413	1.836888	0.032060	20.273109	12.148741	0.000000	0.067251	-0.077664	0.535247	0.124892	-0.103293	0.568700	0.110487	-0.188831	0.568700	0.076861	-0.188831	0.468341	0.062449	-0.158372	0.434888	0.038427	-0.120301	0.401435	0.480367	-0.878547	2.976884	0.000000	0.000000	18.087327	2.352312	-4.728420	-2.559776	-22.946914	-30.127123	81.320772	88.704004	-13.060220	33.563546	23.005899	-16.617690	42.201131	99.648556	89.046807	17.638825	30.491953
4.650000	0.157340	-9.692841	99.343136	0.129918	1.004750	0.271682	-0.726089	-3.093767	-12.823349	9.163740	0.159937	20.182597	1.618230	0.000000	-1.391721	1.230503	-0.754373	1.883238	0.032869	20.343630	12.353324	0.000000	0.068632	-0.063634	0.439171	0.127456	-0.084634	0.466619	0.112755	-0.154721	0.466619	0.078439	-0.154721	0.384275	0.063731	-0.129763	0.356826	0.039216	-0.098570	0.329378	0.490230	-0.719845	2.442538	0.000000	0.000000	17.499899	1.921248	-4.265505	-1.985835	-23.372171	-29.089393	80.985714	88.639305	-12.410800	33.565853	21.894672	-16.484209	40.434606	100.422969	88.768614	15.634065	31.548442
4.666667	0.331696	-9.792444	99.483699	0.129472	1.004761	0.271727	-0.705414	-2.898959	-12.528884	8.961506	0.156408	19.772757	0.984549	0.000000	-1.240035	1.082057	-0.820902	1.919222	0.033497	20.381441	12.529982	0.000000	0.071547	-0.050985	0.329214	0.132870	-0.067810	0.349790	0.117545	-0.123966	0.349790	0.081771	-0.123966	0.288062	0.066439	-0.103969	0.267486	0.040882	-0.078976	0.246910	0.511055	-0.576755	1.830989	0.000000	0.000000	16.948749	1.512145	-3.846872	-1.369486	-23.765344	-28.002336	80.619787	88.558981	-11.709039	33.587857	20.815229	-16.318846	38.562597	101.108200	88.508352	13.245847	32.528211
4.683333	0.477701	-9.880993	99.650081	0.128994	1.004796	0.271730	-0.722685	-2.719986	-12.141618	8.700539	0.151853	19.375139	0.217807	0.000000	-1.108586	0.960204	-0.799718	1.943788	0.033926	20.388368	12.648329	0.000000	0.074838	-0.040214	0.209478	0.138981	-0.053484	0.222571	0.122951	-0.097775	0.222571	0.085532	-0.097775	0.183294	0.069494	-0.082004	0.170201	0.042762	-0.062291	0.157109	0.534558	-0.454904	1.165056	0.000000	0.000000	16.479622	1.131522	-3.427766	-0.727814	-24.154414	-26.853386	80.195900	88.478852	-11.115414	33.624256	19.795327	-16.153985	36.683499	101.737660	88.281754	10.569726	33.364060
4.700000	0.593470	-9.958743	99.859557	0.128451	1.004867	0.271682	-0.779606	-2.564169	-11.797888	8.384421	0.146336	19.032866	-0.512304	0.000000	-0.999273	0.865626	-0.712473	1.954586	0.034114	20.359316	12.773498	0.000000	0.077034	-0.031674	0.092612	0.143061	-0.042127	0.098400	0.126560	-0.077013	0.098400	0.088043	-0.077013	0.081035	0.071534	-0.064590	0.075247	0.044017	-0.049064	0.069459	0.550249	-0.358307	0.515078	0.000000	0.000000	16.111142	0.685128	-3.137718	-0.142530	-24.499878	-25.854497	79.719464	88.409511	-10.418203	33.675046	18.869918	-15.972291	34.926355	102.300244	88.098610	7.676327	33.941600
